<?xml version="1.0" standalone="no"?>
<!DOCTYPE svg PUBLIC "-//W3C//DTD SVG 20010904//EN"
 "http://www.w3.org/TR/2001/REC-SVG-20010904/DTD/svg10.dtd">
<svg version="1.0" xmlns="http://www.w3.org/2000/svg"
 width="1120.000000pt" height="1120.000000pt" viewBox="0 0 1120.000000 1120.000000"
 preserveAspectRatio="xMidYMid meet">
<metadata>
Created by potrace 1.14, written by Peter Selinger 2001-2017
</metadata>
<g transform="translate(0.000000,1120.000000) scale(0.100000,-0.100000)"
fill="#000000" stroke="none">
<path d="M5555 10596 c-60 -22 -75 -38 -110 -112 -19 -41 -35 -76 -35 -79 0
-2 -12 -30 -27 -62 -15 -32 -28 -60 -28 -63 -3 -9 -24 -59 -46 -108 -12 -26
-34 -74 -49 -107 -15 -33 -71 -161 -125 -285 -54 -124 -102 -231 -108 -237 -5
-7 -7 -13 -3 -13 3 0 -3 -17 -14 -37 -10 -21 -37 -81 -60 -133 -52 -118 -68
-154 -91 -206 -11 -22 -19 -46 -19 -52 0 -7 -4 -12 -10 -12 -5 0 -10 -6 -10
-14 0 -8 -16 -49 -35 -90 -19 -42 -35 -78 -35 -80 0 -3 -15 -37 -34 -78 -18
-40 -46 -102 -61 -138 -15 -36 -42 -97 -60 -137 -40 -85 -47 -121 -34 -169 13
-45 35 -71 81 -95 36 -18 70 -19 960 -19 l923 0 39 23 c68 38 96 113 71 187
-13 36 -38 93 -81 187 -13 28 -24 54 -24 57 0 3 -14 36 -31 73 -36 77 -53 117
-99 223 -18 41 -48 108 -67 148 -18 40 -33 75 -33 78 0 4 -13 34 -29 68 -16
33 -43 95 -61 136 -18 41 -40 93 -50 115 -10 22 -32 74 -50 115 -18 41 -43 98
-55 125 -22 49 -97 219 -168 380 -19 44 -44 100 -55 125 -11 25 -33 74 -48
110 -16 36 -38 83 -49 104 -33 62 -115 95 -180 72z m55 -556 c0 -5 12 -35 26
-67 14 -32 33 -74 41 -93 9 -19 24 -53 34 -75 29 -66 136 -308 226 -515 47
-107 95 -215 106 -240 12 -25 21 -47 22 -50 0 -3 11 -27 24 -55 13 -27 45 -99
71 -160 26 -60 57 -130 67 -155 l20 -45 -641 0 c-420 0 -641 3 -642 10 -2 14
4 29 114 275 9 19 16 37 17 40 1 3 11 25 22 50 11 25 102 232 202 460 201 456
196 446 240 543 17 38 31 73 31 78 0 5 5 9 10 9 6 0 10 -4 10 -10z"/>
<path d="M2438 8607 c-46 -41 -66 -82 -63 -130 2 -38 34 -117 48 -117 4 0 7
-4 7 -10 0 -5 28 -56 61 -112 34 -57 70 -116 79 -133 10 -16 54 -93 100 -170
45 -77 90 -153 100 -170 9 -16 32 -55 50 -85 30 -51 46 -78 82 -141 52 -94
142 -123 237 -77 25 13 48 26 51 29 3 3 46 27 95 54 50 27 102 56 118 65 15 8
58 31 95 50 37 19 69 37 72 41 8 9 213 119 222 119 4 0 8 5 8 10 0 6 5 10 10
10 14 0 420 228 444 248 70 63 60 194 -18 246 -22 14 -251 62 -341 71 -11 1
-29 4 -40 8 -11 3 -40 8 -65 11 -25 3 -81 13 -125 21 -44 9 -96 18 -115 21
-19 2 -46 7 -60 10 -27 6 -45 10 -100 18 -19 3 -62 10 -95 16 -33 6 -73 13
-90 16 -16 2 -41 7 -55 11 -14 3 -36 7 -50 9 -28 3 -68 9 -120 19 -19 4 -44 8
-55 10 -11 1 -47 7 -80 13 -33 6 -76 14 -95 17 -51 8 -102 17 -125 22 -11 2
-49 6 -85 8 -62 4 -67 2 -102 -28z m463 -347 c30 -5 70 -12 89 -16 19 -3 44
-8 56 -9 11 -2 45 -8 75 -14 30 -5 70 -13 89 -15 19 -3 89 -15 155 -26 66 -12
134 -23 150 -26 17 -2 41 -7 55 -10 14 -3 43 -8 65 -10 22 -3 41 -6 42 -8 3
-3 -99 -61 -182 -105 -27 -14 -52 -29 -55 -32 -3 -3 -10 -8 -15 -10 -19 -8
-210 -112 -215 -118 -11 -13 -93 -50 -100 -46 -5 3 -30 42 -56 88 -26 45 -53
89 -60 97 -7 8 -14 20 -15 25 -1 6 -7 19 -14 30 -68 110 -128 215 -122 215 2
0 28 -4 58 -10z"/>
<path d="M8607 8633 c-2 -1 -32 -7 -67 -12 -69 -12 -80 -14 -205 -36 -44 -7
-95 -16 -112 -19 -18 -3 -48 -9 -65 -12 -18 -3 -42 -7 -53 -9 -11 -1 -47 -8
-80 -14 -33 -6 -76 -13 -95 -16 -19 -3 -73 -13 -120 -21 -88 -17 -128 -23
-170 -28 -14 -2 -38 -6 -55 -10 -44 -9 -74 -15 -120 -22 -194 -29 -468 -84
-496 -100 -35 -21 -68 -76 -73 -121 -6 -58 40 -131 99 -159 33 -15 79 -41 119
-67 14 -10 26 -14 26 -11 0 4 8 0 18 -8 9 -9 46 -31 82 -50 36 -19 128 -70
205 -112 154 -86 229 -127 290 -160 22 -11 42 -23 45 -26 3 -3 14 -10 25 -16
11 -6 43 -24 70 -39 28 -16 96 -52 152 -81 96 -49 105 -52 144 -43 23 5 49 14
59 19 17 9 70 73 70 85 0 3 12 24 27 48 30 47 202 338 241 407 14 24 50 85 80
135 31 49 64 106 74 125 11 19 25 44 31 55 7 11 25 42 41 69 33 56 39 96 24
146 -22 72 -89 114 -173 108 -20 -1 -37 -3 -38 -5z m-247 -368 c0 -2 -18 -33
-40 -67 -22 -35 -40 -68 -40 -75 0 -6 -4 -13 -8 -15 -4 -1 -30 -41 -57 -88
-28 -46 -55 -94 -62 -105 -7 -11 -22 -39 -35 -62 -12 -24 -25 -43 -30 -43 -4
0 -30 14 -59 31 -28 16 -77 43 -108 60 -31 16 -74 40 -96 52 -22 13 -71 41
-110 62 -38 21 -88 49 -110 62 -22 13 -48 26 -57 30 -25 8 -22 23 5 25 27 1
33 2 77 11 19 4 46 9 60 12 14 3 45 8 70 11 25 3 48 8 51 10 3 1 28 6 55 9 27
4 56 8 64 10 8 2 29 6 45 9 141 23 199 33 235 41 14 3 48 8 75 11 28 3 52 8
54 10 6 5 21 5 21 -1z"/>
<path d="M4665 7852 c-24 -5 -107 -52 -117 -67 -4 -5 -8 -7 -8 -3 0 7 -59 -29
-87 -52 -7 -5 -14 -10 -17 -10 -3 0 -76 -43 -163 -96 -87 -53 -196 -120 -243
-148 -47 -28 -94 -56 -105 -63 -11 -7 -27 -15 -35 -19 -8 -4 -17 -10 -20 -14
-3 -3 -72 -46 -155 -95 -82 -49 -152 -91 -155 -95 -3 -3 -26 -17 -52 -30 -27
-14 -48 -28 -48 -32 0 -5 -4 -8 -10 -8 -9 0 -200 -115 -247 -149 -12 -9 -23
-22 -23 -28 0 -7 -4 -13 -9 -13 -5 0 -12 -22 -16 -50 -17 -122 96 -213 210
-170 14 5 50 26 80 45 31 19 58 35 61 35 2 0 17 9 32 19 28 19 272 170 329
202 119 68 517 311 536 327 9 8 17 11 17 6 0 -5 4 -4 8 2 4 6 23 20 42 31 19
10 53 30 75 44 22 14 56 34 75 45 19 10 37 21 40 24 3 3 23 17 45 30 l40 23
857 1 856 0 39 -27 c22 -15 44 -27 51 -27 7 0 12 -3 12 -7 0 -5 10 -13 23 -19
12 -6 83 -48 157 -94 74 -45 178 -108 230 -140 52 -31 201 -121 330 -200 129
-79 244 -148 255 -154 11 -6 79 -47 150 -91 125 -77 132 -80 191 -80 49 0 66
5 91 25 35 28 63 85 63 129 0 35 -39 111 -60 119 -8 3 -17 8 -20 12 -3 3 -94
60 -203 125 -109 66 -215 130 -235 143 -20 13 -45 25 -54 29 -10 3 -18 8 -18
12 0 4 -29 22 -65 41 -36 19 -65 37 -65 42 0 4 -5 8 -10 8 -6 0 -53 27 -106
60 -52 33 -97 60 -99 60 -3 0 -36 20 -75 45 -39 25 -73 45 -77 45 -3 0 -14 6
-22 14 -14 12 -42 29 -116 70 -11 6 -46 28 -78 49 -31 20 -60 37 -63 37 -3 0
-33 19 -67 42 l-62 43 -935 0 c-514 1 -944 -1 -955 -3z"/>
<path d="M4991 7189 c-17 -4 -59 -24 -93 -46 -35 -22 -124 -78 -198 -123 -74
-46 -146 -91 -159 -99 -25 -16 -53 -34 -138 -85 -26 -17 -79 -50 -118 -75 -38
-24 -93 -58 -120 -75 -28 -17 -59 -37 -70 -44 -11 -6 -27 -15 -35 -19 -8 -4
-17 -9 -20 -12 -3 -4 -66 -44 -140 -90 -74 -46 -151 -94 -170 -106 -19 -12
-71 -44 -115 -71 -44 -27 -81 -52 -83 -56 -2 -5 -7 -8 -12 -8 -11 0 -228 -135
-253 -157 -41 -37 -48 -75 -48 -261 0 -97 0 -184 0 -192 0 -8 -1 -260 0 -560
0 -300 -1 -552 -1 -560 0 -8 0 -62 1 -120 0 -58 0 -112 0 -120 -1 -8 -1 -98 0
-200 0 -102 0 -192 -1 -200 0 -8 0 -62 1 -120 0 -58 0 -112 0 -120 -1 -8 -1
-62 0 -120 0 -58 0 -112 0 -120 -1 -8 -1 -62 0 -120 0 -58 0 -112 0 -120 -1
-8 -1 -62 0 -120 0 -58 0 -112 0 -120 -1 -8 -1 -62 0 -120 0 -58 0 -112 0
-120 -1 -8 -1 -64 0 -125 2 -269 3 -313 2 -365 0 -30 0 -102 0 -160 1 -58 1
-112 0 -120 -2 -34 0 -167 3 -190 4 -33 19 -60 48 -86 12 -11 214 -139 448
-284 234 -145 456 -283 493 -307 37 -24 72 -43 76 -43 5 0 11 -4 13 -8 2 -5
46 -35 98 -66 52 -32 133 -82 180 -112 47 -30 96 -59 110 -66 14 -7 27 -15 30
-19 5 -5 37 -26 134 -84 18 -11 55 -33 82 -50 l49 -30 615 0 615 0 120 73 c66
41 163 100 215 133 95 59 122 76 345 214 66 40 125 78 130 82 6 5 17 12 25 16
20 10 5 1 455 281 220 137 411 259 423 270 55 49 52 -99 52 2227 0 2134 0
2153 -20 2193 -18 37 -50 60 -342 241 -177 110 -328 201 -335 203 -7 2 -13 7
-13 10 0 4 -17 16 -37 27 -21 11 -40 23 -43 26 -3 3 -23 16 -46 27 -22 11 -46
28 -53 36 -8 9 -18 16 -23 16 -5 0 -39 19 -76 43 -37 24 -121 77 -187 117 -66
40 -133 83 -150 94 -16 12 -32 21 -35 21 -5 0 -66 39 -161 102 -19 12 -40 23
-47 23 -7 0 -12 4 -12 9 0 5 -13 14 -30 21 -16 7 -30 16 -30 21 0 5 -4 9 -9 9
-5 0 -33 14 -61 32 l-51 32 -599 0 c-330 1 -613 -2 -629 -5z m919 -321 c0 -11
-289 -588 -303 -606 -8 -10 -26 17 -72 110 -34 68 -103 205 -153 304 -51 100
-92 186 -92 191 0 6 124 10 310 9 171 0 310 -3 310 -8z m-840 -271 c58 -117
108 -214 111 -217 3 -3 12 -22 20 -42 7 -21 17 -38 21 -38 4 0 8 -9 8 -19 0
-11 3 -21 8 -23 9 -4 156 -301 154 -310 -1 -5 2 -8 7 -8 19 0 21 -50 3 -82
-10 -18 -43 -78 -72 -133 -29 -55 -56 -104 -60 -110 -8 -11 -128 -236 -144
-272 -6 -13 -14 -23 -18 -23 -5 0 -8 -9 -8 -19 0 -11 -3 -21 -7 -23 -5 -1 -22
-30 -39 -63 -18 -33 -46 -87 -64 -120 -164 -303 -208 -385 -225 -420 -11 -22
-23 -42 -26 -45 -3 -3 -12 -18 -20 -35 -9 -16 -34 -64 -56 -105 -23 -41 -64
-118 -91 -170 -28 -52 -54 -96 -59 -97 -5 -2 -28 34 -51 79 -23 46 -63 121
-88 168 -25 47 -80 150 -121 230 -42 80 -85 157 -95 173 -11 15 -16 27 -12 27
3 0 2 6 -3 13 -11 13 -74 129 -114 207 -12 25 -31 57 -41 73 -11 15 -16 27
-13 27 3 0 -2 12 -13 28 -10 15 -30 50 -43 77 -24 47 -77 148 -170 323 -22 39
-58 107 -80 150 -23 42 -51 94 -62 114 -23 42 -19 49 43 84 19 10 39 23 45 27
29 22 188 117 196 117 5 0 9 5 9 10 0 6 5 10 10 10 6 0 16 5 23 10 28 23 87
59 87 52 0 -4 4 -2 8 4 4 6 95 65 202 131 107 66 263 163 347 215 83 52 157
98 165 101 7 4 58 36 113 71 55 36 102 65 105 65 3 0 52 -95 110 -212z m1303
131 c73 -45 161 -100 197 -123 36 -23 81 -50 100 -61 19 -10 37 -22 40 -25 3
-3 52 -34 110 -69 58 -36 107 -68 108 -72 2 -4 8 -8 13 -8 8 0 63 -33 159 -95
55 -35 363 -226 427 -264 89 -53 90 -55 63 -104 -12 -23 -39 -73 -59 -112 -20
-38 -39 -71 -43 -73 -5 -2 -8 -11 -8 -21 0 -9 -8 -26 -17 -37 -10 -11 -19 -26
-21 -34 -2 -8 -11 -23 -19 -32 -9 -10 -13 -18 -8 -18 4 0 3 -6 -3 -12 -10 -13
-40 -69 -147 -273 -32 -60 -73 -139 -93 -175 -61 -114 -108 -202 -167 -315
-111 -210 -185 -350 -200 -375 -8 -14 -32 -59 -52 -100 -20 -41 -40 -76 -45
-78 -4 -2 -8 -10 -8 -19 0 -32 -24 -3 -68 82 -26 50 -50 92 -54 93 -5 2 -8 7
-8 12 0 5 -28 60 -61 122 -80 147 -136 251 -169 313 -28 53 -84 156 -130 240
-15 28 -49 91 -76 140 -26 50 -68 126 -91 170 -24 44 -51 96 -61 115 -9 19
-20 37 -24 38 -5 2 -8 8 -8 12 0 8 -53 108 -143 270 l-30 54 229 458 c126 252
230 458 232 458 1 0 62 -37 135 -82z m-712 -1280 c19 -35 36 -65 39 -68 3 -3
18 -30 33 -60 57 -110 102 -195 107 -200 3 -3 20 -34 38 -70 19 -36 52 -99 75
-140 23 -41 52 -95 65 -120 13 -25 33 -63 46 -85 12 -22 48 -89 81 -150 32
-60 79 -148 105 -195 55 -100 141 -259 184 -345 17 -33 34 -62 37 -65 3 -3 14
-20 23 -38 17 -34 17 -34 -17 -100 -19 -37 -57 -110 -84 -162 -26 -52 -51 -97
-54 -100 -3 -3 -19 -32 -35 -65 -16 -33 -31 -62 -34 -65 -3 -3 -22 -36 -41
-75 -47 -90 -143 -273 -185 -350 -18 -33 -43 -80 -55 -105 -13 -25 -47 -90
-77 -145 -30 -55 -75 -138 -99 -185 -121 -228 -178 -337 -187 -357 -6 -13 -15
-23 -19 -23 -5 0 -5 -6 -1 -13 5 -8 4 -9 -3 -2 -6 6 -28 42 -48 80 -21 39 -54
102 -75 140 -21 39 -61 115 -90 170 -29 55 -70 132 -90 170 -49 91 -104 196
-170 320 -83 158 -134 254 -181 340 -62 116 -120 227 -175 335 -27 52 -51 97
-54 100 -3 3 -11 17 -18 31 -12 22 -11 30 5 60 11 19 33 59 49 89 16 30 33 58
39 62 5 4 6 8 1 8 -5 0 -4 6 2 13 5 6 25 41 44 77 52 96 117 216 160 295 21
39 48 90 60 115 13 25 26 47 31 48 4 2 7 7 7 11 0 4 33 68 73 142 39 74 81
152 92 174 11 22 22 42 25 45 3 3 16 25 29 50 37 72 90 171 120 225 15 28 46
84 68 125 37 68 78 142 90 163 3 5 11 -3 18 -17 7 -14 28 -53 46 -88z m-2088
-140 c19 -35 63 -117 97 -183 35 -66 75 -142 90 -170 15 -27 53 -99 85 -160
32 -60 70 -132 85 -160 15 -27 52 -97 82 -155 31 -58 66 -125 80 -150 14 -25
50 -92 80 -150 30 -58 79 -149 108 -204 l52 -98 -19 -37 c-11 -20 -39 -72 -63
-116 -23 -44 -50 -93 -59 -110 -9 -16 -20 -33 -24 -36 -5 -3 -9 -10 -8 -15 0
-5 -17 -40 -38 -79 -21 -38 -39 -74 -39 -79 0 -5 -4 -12 -9 -15 -5 -3 -19 -26
-32 -51 -12 -25 -32 -63 -45 -85 -12 -22 -45 -84 -74 -138 -29 -54 -77 -143
-107 -198 -30 -55 -55 -102 -55 -104 0 -2 -13 -26 -28 -52 -27 -46 -129 -235
-161 -298 -8 -16 -20 -35 -26 -41 -7 -8 -10 416 -10 1468 0 813 1 1478 2 1478
1 0 17 -28 36 -62z m4092 -1418 c0 -813 -3 -1476 -7 -1472 -7 8 -50 87 -105
192 -19 36 -38 72 -43 80 -11 18 -129 235 -209 385 -9 17 -22 38 -30 48 -8 9
-11 17 -8 17 4 0 -9 26 -27 58 -18 31 -55 98 -81 147 -49 92 -81 150 -136 253
-17 31 -48 89 -69 127 -21 39 -47 86 -58 106 -19 35 -20 89 -1 89 5 0 9 5 9
11 0 6 16 37 35 70 19 32 32 59 28 59 -3 0 -1 6 4 13 6 6 32 53 58 102 26 50
61 115 78 145 16 30 50 93 75 140 24 47 83 157 129 245 131 245 165 311 228
430 48 92 105 197 122 228 2 4 5 7 6 7 1 0 2 -666 2 -1480z m-3053 -540 c25
-47 69 -130 98 -185 93 -176 132 -249 160 -300 15 -27 53 -99 85 -160 31 -60
74 -141 95 -180 20 -38 59 -110 85 -160 26 -49 64 -121 85 -160 20 -38 61
-115 90 -170 29 -55 66 -125 83 -154 l30 -55 -25 -45 c-14 -26 -49 -91 -78
-146 -29 -55 -63 -118 -75 -140 -13 -22 -42 -76 -65 -120 -151 -286 -214 -396
-224 -392 -7 3 -63 37 -125 76 -62 39 -117 71 -122 71 -5 0 -9 5 -9 10 0 6 -5
10 -10 10 -6 0 -23 8 -38 18 -29 20 -66 43 -172 109 -63 39 -228 142 -300 188
-19 12 -160 99 -312 194 -153 95 -278 175 -278 178 0 3 14 30 31 61 30 55 61
112 157 292 41 78 56 106 121 223 21 38 85 157 133 247 13 25 28 52 33 60 5 8
10 21 12 29 1 8 6 17 11 20 5 3 35 58 68 121 32 63 62 117 65 120 3 3 12 19
20 35 14 28 34 66 142 265 22 41 45 78 51 82 6 4 7 8 3 8 -7 0 18 50 60 118
14 22 14 22 42 -30 15 -29 48 -91 73 -138z m2150 60 c7 -17 16 -30 20 -30 5 0
8 -5 8 -10 0 -6 42 -88 93 -183 51 -94 96 -179 100 -187 4 -8 20 -37 35 -65
75 -137 103 -187 148 -270 26 -49 65 -121 86 -160 21 -38 49 -90 61 -115 12
-25 24 -47 27 -50 3 -3 16 -27 30 -55 14 -27 27 -52 30 -55 3 -3 20 -34 39
-70 18 -36 46 -87 61 -115 63 -116 110 -204 110 -209 0 -2 -42 -30 -92 -63
-99 -62 -100 -63 -177 -108 -28 -16 -51 -33 -51 -37 0 -5 -4 -8 -9 -8 -5 0
-72 -39 -148 -86 -76 -48 -150 -94 -165 -103 -14 -9 -59 -36 -98 -61 -39 -25
-79 -49 -88 -55 -77 -45 -228 -141 -230 -147 -2 -4 -7 -8 -12 -8 -5 0 -44 -22
-87 -49 -164 -104 -215 -133 -223 -125 -4 5 -20 34 -36 64 -15 30 -35 63 -43
73 -8 9 -11 17 -8 17 4 0 -6 21 -21 47 -16 27 -55 100 -88 163 -32 63 -62 117
-65 120 -3 3 -36 64 -74 135 -37 72 -79 149 -92 173 l-24 43 33 67 c18 37 35
69 38 72 6 6 21 35 88 165 26 49 51 93 57 97 5 4 6 8 1 8 -5 0 -4 6 2 13 5 6
33 57 62 112 29 55 80 152 114 215 34 63 75 142 91 175 17 33 33 62 36 65 3 3
39 70 81 150 41 80 91 174 110 210 19 36 59 110 88 165 29 55 66 124 83 153
l30 54 28 -51 c15 -29 34 -65 41 -81z m-1141 -1957 c8 -16 16 -30 19 -33 3 -3
17 -30 33 -60 15 -30 46 -91 70 -135 24 -44 71 -133 106 -197 l62 -117 -310 0
-310 1 22 46 c12 26 24 49 28 52 3 3 19 32 36 65 17 33 52 98 77 145 26 47 67
124 92 173 25 48 49 87 53 87 4 0 14 -12 22 -27z"/>
</g>
</svg>
