<svg width="85" height="85" xmlns="http://www.w3.org/2000/svg">

 <g>
  <title>background</title>
  <rect fill="none" id="canvas_background" height="402" width="582" y="-1" x="-1"/>
 </g>
 <g>
  <title stroke="#000000">Layer 1</title>
  <path id="svg_2" stroke-width="2.5" stroke-miterlimit="10" stroke-linejoin="round" stroke-linecap="square" stroke="#000000" fill="none" d="m67.559,57.275l-9.564,-6.375c0,0 -1.671,-1.519 -4.022,-0.228l-5.769,3.188c0,0 -5.785,-4.596 -8.99,-8.076c-3.479,-3.205 -8.075,-8.989 -8.075,-8.989l3.188,-5.768c1.289,-2.352 -0.228,-4.023 -0.228,-4.023l-6.376,-9.562c-1.138,-1.595 -2.504,-1.291 -2.504,-1.291c-1.746,0.077 -6.906,4.934 -6.906,4.934c-2.732,2.429 -2.125,4.555 -2.125,4.555c1.836,12.996 15.508,25.525 16.553,26.617c1.41,1.311 13.622,14.719 26.618,16.555c0,0 2.127,0.607 4.556,-2.125c0,0 4.856,-5.162 4.935,-6.908c0,0 0.304,-1.364 -1.291,-2.504z"/>
  <path id="svg_4" stroke-width="2.5" stroke-miterlimit="10" stroke="#000000" fill="none" d="m45.35,26.069c3.2,0.076 6.383,1.326 8.844,3.752c2.481,2.447 3.777,5.645 3.881,8.874"/>
  <path id="svg_5" stroke-width="2.5" stroke-miterlimit="10" stroke="#000000" fill="none" d="m45.596,18.825c4.957,0.136 9.877,2.079 13.688,5.835c3.807,3.754 5.818,8.64 6.027,13.591"/>
 </g>
</svg>