<svg width="85" height="85" xmlns="http://www.w3.org/2000/svg">

 <g>
  <title>background</title>
  <rect fill="none" id="canvas_background" height="402" width="582" y="-1" x="-1"/>
 </g>
 <g>
  <title stroke="#000000">Layer 1</title>
  <path id="svg_6" stroke-width="2.5" stroke-miterlimit="10" stroke-linejoin="round" stroke="#000000" fill="none" d="m51.900002,57.102001l0,13.605999c0,1.550003 -1.269001,2.905998 -2.816002,2.905998l-28.775999,0c-1.549,0 -2.815001,-1.355995 -2.815001,-2.905998l0,-56.507c0,-1.55 1.267,-2.815001 2.815001,-2.815001l28.775999,0c1.549,0 2.816002,1.266001 2.816002,2.815001l0,2.448"/>
  <line id="svg_7" y2="61.333" y1="61.333" x2="47.709" x1="21.675" stroke-width="2.5" stroke-miterlimit="10" stroke-linejoin="round" stroke="#000000" fill="none"/>
  <line id="svg_8" y2="67.298" y1="67.298" x2="37.036" x1="32.357" stroke-width="2.5" stroke-miterlimit="10" stroke-linejoin="round" stroke-linecap="round" stroke="#000000" fill="none"/>
  <path id="svg_12" stroke-width="2.5" stroke-miterlimit="10" stroke-linejoin="round" stroke-linecap="round" stroke="#000000" fill="none" d="m48.900002,25.323c-1.103001,0.280001 -2.142002,0.715 -3.096001,1.278999l-3.48,-2.469999l-3.165001,3.160999l2.470001,3.481001c-0.561001,0.948999 -0.993,1.978998 -1.272003,3.072001l-4.206997,0.716l0,4.473l4.206997,0.716999c0.282001,1.102001 0.718002,2.139 1.285,3.091l-2.481998,3.462002l3.165001,3.161999l3.458,-2.481998c0.954998,0.565998 1.992001,1.001999 3.091999,1.285l0.716999,4.209l4.473,0l0.718002,-4.207001c1.101997,-0.285 2.140999,-0.721001 3.096001,-1.286999l3.459,2.481998l3.161999,-3.161999l-2.480999,-3.458c0.569,-0.962002 1.007999,-2.007999 1.291,-3.120998l4.200001,-0.689003l0,-4.473l-4.200001,-0.690998c-0.279003,-1.103001 -0.713001,-2.139002 -1.277,-3.097002l2.468998,-3.48l-3.161999,-3.161999l-3.481998,2.469999c-0.955002,-0.563999 -1.996002,-1 -3.098003,-1.281l-0.690998,-4.198999l-4.473,0"/>
  <path id="svg_13" stroke-width="2.5" stroke-miterlimit="10" stroke-linejoin="round" stroke-linecap="round" stroke="#000000" fill="none" d="m50.993999,32.293999c0.27,-0.049 0.549,-0.076 0.836002,-0.077c2.528999,0 4.579998,2.051003 4.579998,4.584c0,2.530003 -2.050999,4.578003 -4.579998,4.578003c-2.531002,0 -4.586002,-2.048 -4.586002,-4.578003c0,-0.271999 0.025002,-0.541 0.07,-0.799999"/>
 </g>
</svg>