<svg width="85" height="85" xmlns="http://www.w3.org/2000/svg">

 <g>
  <title>background</title>
  <rect fill="none" id="canvas_background" height="402" width="582" y="-1" x="-1"/>
 </g>
 <g>
  <title stroke="#000000">Layer 1</title>
  <line id="svg_4" y2="31.381" y1="64.264" x2="34.293" x1="29.743" stroke-width="2.5" stroke-miterlimit="10" stroke-linejoin="round" stroke-linecap="round" stroke="#000000" fill="none"/>
  <path id="svg_5" stroke-width="2.5" stroke-miterlimit="10" stroke-linejoin="round" stroke-linecap="round" stroke="#000000" fill="none" d="m15.863,73.498001c0,0 5.612,5.650002 13.309001,0c0,0 5.653999,5.650002 13.349998,0c0,0 5.612999,5.650002 13.306,0c0,0 5.613003,5.650002 13.309002,0"/>
  <path id="svg_6" stroke-width="2.5" stroke-miterlimit="10" stroke-linejoin="round" stroke="#000000" fill="none" d="m50.688999,30.881001l0,-13.777c0,-4.463 -3.728001,-8.113 -8.188999,-8.113c-4.463001,0 -8.188999,3.65 -8.188999,8.113l0,4.138"/>
  <line id="svg_7" y2="15.659" y1="15.659" x2="50.539" x1="34.461" stroke-width="2.5" stroke-miterlimit="10" stroke-linejoin="round" stroke="#000000" fill="none"/>
  <line id="svg_10" y2="19.234" y1="19.234" x2="17.132" x1="26.051" stroke-width="2.5" stroke-miterlimit="10" stroke-linejoin="round" stroke-linecap="round" stroke="#000000" fill="none"/>
  <line id="svg_11" y2="10.431" y1="13.903" x2="17.344" x1="25.84" stroke-width="2.5" stroke-miterlimit="10" stroke-linejoin="round" stroke-linecap="round" stroke="#000000" fill="none"/>
  <line id="svg_12" y2="24.564" y1="28.037" x2="25.84" x1="17.344" stroke-width="2.5" stroke-miterlimit="10" stroke-linejoin="round" stroke-linecap="round" stroke="#000000" fill="none"/>
  <line id="svg_14" y2="19.234" y1="19.234" x2="67.867" x1="58.947" stroke-width="2.5" stroke-miterlimit="10" stroke-linejoin="round" stroke-linecap="round" stroke="#000000" fill="none"/>
  <line id="svg_15" y2="28.038" y1="24.564" x2="67.654" x1="59.158" stroke-width="2.5" stroke-miterlimit="10" stroke-linejoin="round" stroke-linecap="round" stroke="#000000" fill="none"/>
  <line id="svg_16" y2="13.905" y1="10.432" x2="59.158" x1="67.654" stroke-width="2.5" stroke-miterlimit="10" stroke-linejoin="round" stroke-linecap="round" stroke="#000000" fill="none"/>
  <line id="svg_18" y2="31.078" y1="31.078" x2="53.312" x1="31.688" stroke-width="2.5" stroke-miterlimit="10" stroke-linejoin="round" stroke-linecap="round" stroke="#000000" fill="none"/>
  <line id="svg_20" y2="25.5" y1="25.5" x2="53.312" x1="31.688" stroke-width="2.5" stroke-miterlimit="10" stroke-linejoin="round" stroke-linecap="round" stroke="#000000" fill="none"/>
  <line id="svg_22" y2="25.536" y1="31.036" x2="34.311" x1="34.311" stroke-width="2.5" stroke-miterlimit="10" stroke-linejoin="round" stroke="#000000" fill="none"/>
  <polyline id="svg_23" stroke-width="2.5" stroke-miterlimit="10" stroke-linejoin="round" stroke="#000000" points="24.397,71.076    25.774,64.389 59.227,64.389 60.604,71.076  " fill="none"/>
  <line id="svg_24" y2="39.645" y1="39.645" x2="37.452" x1="51.715" stroke-width="2.5" stroke-miterlimit="10" stroke-linejoin="round" stroke="#000000" fill="none"/>
  <line id="svg_25" y2="48.277" y1="48.277" x2="36.309" x1="52.549" stroke-width="2.5" stroke-miterlimit="10" stroke-linejoin="round" stroke="#000000" fill="none"/>
  <line id="svg_26" y2="56.91" y1="56.91" x2="35.167" x1="53.633" stroke-width="2.5" stroke-miterlimit="10" stroke-linejoin="round" stroke="#000000" fill="none"/>
  <line id="svg_28" y2="64.264" y1="31.383" x2="55.258" x1="50.703" stroke-width="2.5" stroke-miterlimit="10" stroke-linejoin="round" stroke-linecap="round" stroke="#000000" fill="none"/>
  <line id="svg_29" y2="19.771" y1="25.146" x2="42.5" x1="42.5" stroke-width="2.5" stroke-miterlimit="10" stroke-linejoin="round" stroke="#000000" fill="none"/>
 </g>
</svg>