<?xml version="1.0" encoding="UTF-8" standalone="no"?>
<!-- Created with Inkscape (http://www.inkscape.org/) -->

<svg
   width="45"
   height="70"
   viewBox="0 0 11.90625 18.520835"
   version="1.1"
   id="svg380"
   inkscape:version="1.1 (c68e22c387, 2021-05-23)"
   sodipodi:docname="drawing1.svg"
   xmlns:inkscape="http://www.inkscape.org/namespaces/inkscape"
   xmlns:sodipodi="http://sodipodi.sourceforge.net/DTD/sodipodi-0.dtd"
   xmlns="http://www.w3.org/2000/svg"
   xmlns:svg="http://www.w3.org/2000/svg">
  <sodipodi:namedview
     id="namedview382"
     pagecolor="#ffffff"
     bordercolor="#666666"
     borderopacity="1.0"
     inkscape:pageshadow="2"
     inkscape:pageopacity="0.0"
     inkscape:pagecheckerboard="0"
     inkscape:document-units="mm"
     showgrid="false"
     inkscape:zoom="6.2145903"
     inkscape:cx="39.503811"
     inkscape:cy="32.745521"
     inkscape:window-width="1920"
     inkscape:window-height="1057"
     inkscape:window-x="-8"
     inkscape:window-y="-8"
     inkscape:window-maximized="1"
     inkscape:current-layer="layer1"
     units="px"
     fit-margin-top="0"
     fit-margin-left="0"
     fit-margin-right="0"
     fit-margin-bottom="0" />
  <defs
     id="defs377" />
  <g
     inkscape:label="Layer 1"
     inkscape:groupmode="layer"
     id="layer1"
     transform="translate(-96.160316,-58.265055)">
    <g
       id="g48"
       transform="matrix(0.26458333,0,0,0.26458333,-9.2614432,-6.116352)"
       style="fill:#cbff00">
      <g
         id="g46"
         style="fill:#cbff00">
        <g
           id="g4"
           style="fill:#cbff00">
          <path
             d="m 424.541,309.605 h -7.193 c -0.183,0 -0.362,-0.051 -0.519,-0.149 l -10.294,-6.406 c -0.288,-0.18 -0.462,-0.493 -0.462,-0.833 v -26.456 c 0,-0.338 0.174,-0.653 0.462,-0.832 l 10.294,-6.407 c 0.156,-0.096 0.336,-0.147 0.519,-0.147 h 7.193 c 0.182,0 0.363,0.052 0.518,0.147 l 10.297,6.407 c 0.285,0.179 0.463,0.494 0.463,0.832 v 26.456 c 0,0.34 -0.178,0.653 -0.463,0.833 l -10.297,6.406 c -0.155,0.099 -0.336,0.149 -0.518,0.149 z m -6.913,-1.96 h 6.631 l 9.596,-5.971 v -25.367 l -9.596,-5.971 h -6.631 l -9.594,5.971 v 25.367 z"
             id="path2"
             style="fill:#cbff00" />
        </g>
        <g
           id="g8"
           style="fill:#cbff00">
          <path
             d="m 434.838,303.197 c -0.352,0 -0.688,-0.186 -0.865,-0.514 l -13.027,-24.127 -13.029,24.127 c -0.258,0.475 -0.852,0.652 -1.329,0.396 -0.477,-0.258 -0.655,-0.853 -0.397,-1.329 l 13.891,-25.725 c 0.171,-0.317 0.503,-0.515 0.864,-0.515 0.359,0 0.691,0.198 0.861,0.515 l 13.892,25.725 c 0.256,0.477 0.08,1.071 -0.396,1.329 -0.149,0.082 -0.309,0.118 -0.465,0.118 z"
             id="path6"
             style="fill:#cbff00" />
        </g>
        <g
           id="g12"
           style="fill:#cbff00">
          <path
             d="m 420.946,277.473 c -0.371,0 -0.71,-0.209 -0.877,-0.54 l -3.596,-7.138 c -0.154,-0.304 -0.138,-0.665 0.041,-0.955 0.179,-0.29 0.495,-0.466 0.835,-0.466 h 7.193 c 0.34,0 0.656,0.176 0.836,0.466 0.178,0.29 0.191,0.651 0.037,0.955 l -3.593,7.138 c -0.169,0.331 -0.507,0.54 -0.876,0.54 z m -2.006,-7.138 2.005,3.978 2.003,-3.978 z"
             id="path10"
             style="fill:#cbff00" />
        </g>
        <g
           id="g16"
           style="fill:#cbff00">
          <path
             d="m 420.946,302.914 c -0.363,0 -0.697,-0.201 -0.867,-0.521 l -13.891,-26.171 c -0.255,-0.478 -0.073,-1.072 0.406,-1.325 0.479,-0.256 1.072,-0.072 1.326,0.406 l 13.027,24.538 13.023,-24.538 c 0.254,-0.478 0.85,-0.661 1.328,-0.406 0.477,0.253 0.658,0.847 0.404,1.325 l -13.89,26.171 c -0.171,0.32 -0.505,0.521 -0.866,0.521 z"
             id="path14"
             style="fill:#cbff00" />
        </g>
        <g
           id="g20"
           style="fill:#cbff00">
          <path
             d="m 424.555,309.605 c -0.006,0 -0.01,0 -0.014,0 h -7.193 c -0.344,0 -0.665,-0.183 -0.842,-0.479 -0.177,-0.295 -0.185,-0.662 -0.022,-0.967 l 3.596,-6.691 c 0.171,-0.318 0.504,-0.517 0.865,-0.517 0.359,0 0.691,0.198 0.863,0.517 l 3.527,6.564 c 0.125,0.164 0.199,0.369 0.199,0.591 0.001,0.543 -0.438,0.982 -0.979,0.982 z m -5.566,-1.96 h 3.911 l -1.955,-3.641 z"
             id="path18"
             style="fill:#cbff00" />
        </g>
        <g
           id="g24"
           style="fill:#cbff00">
          <path
             d="m 406.619,271.47 c -0.332,0 -0.655,-0.168 -0.84,-0.473 -0.281,-0.463 -0.133,-1.065 0.331,-1.346 l 8.715,-5.284 c 0.154,-0.094 0.329,-0.143 0.508,-0.143 h 5.612 c 0.539,0 0.98,0.439 0.98,0.98 0,0.542 -0.441,0.98 -0.98,0.98 h -5.338 l -8.482,5.143 c -0.159,0.097 -0.333,0.143 -0.506,0.143 z"
             id="path22"
             style="fill:#cbff00" />
        </g>
        <g
           id="g28"
           style="fill:#cbff00">
          <path
             d="m 435.27,271.47 c -0.17,0 -0.348,-0.045 -0.508,-0.142 l -8.48,-5.143 h -5.335 c -0.543,0 -0.98,-0.439 -0.98,-0.98 0,-0.541 0.438,-0.98 0.98,-0.98 h 5.609 c 0.18,0 0.355,0.049 0.51,0.143 l 8.715,5.284 c 0.463,0.281 0.611,0.883 0.33,1.346 -0.185,0.304 -0.507,0.472 -0.841,0.472 z"
             id="path26"
             style="fill:#cbff00" />
        </g>
        <g
           id="g32"
           style="fill:#cbff00">
          <path
             d="m 420.946,261.643 h -5.558 c -0.331,0 -0.64,-0.167 -0.821,-0.444 -0.181,-0.277 -0.21,-0.628 -0.076,-0.931 l 5.557,-12.625 c 0.219,-0.495 0.797,-0.719 1.291,-0.502 0.496,0.218 0.722,0.797 0.504,1.293 l -4.952,11.249 h 4.055 c 0.539,0 0.98,0.439 0.98,0.98 0,0.542 -0.441,0.98 -0.98,0.98 z"
             id="path30"
             style="fill:#cbff00" />
        </g>
        <g
           id="g36"
           style="fill:#cbff00">
          <path
             d="m 426.502,261.643 h -5.556 c -0.543,0 -0.98,-0.438 -0.98,-0.98 0,-0.542 0.438,-0.98 0.98,-0.98 h 4.052 l -4.951,-11.249 c -0.218,-0.496 0.007,-1.075 0.502,-1.293 0.496,-0.218 1.076,0.006 1.293,0.502 l 5.556,12.625 c 0.133,0.303 0.105,0.654 -0.074,0.931 -0.183,0.277 -0.492,0.444 -0.822,0.444 z"
             id="path34"
             style="fill:#cbff00" />
        </g>
        <g
           id="g40"
           style="fill:#cbff00">
          <path
             d="m 405.022,266.844 c -0.336,0 -0.663,-0.173 -0.846,-0.482 l -3.269,-5.557 c -0.193,-0.329 -0.178,-0.741 0.04,-1.055 0.217,-0.313 0.595,-0.473 0.974,-0.408 l 10.112,1.757 c 0.41,0.071 0.729,0.393 0.799,0.803 0.069,0.41 -0.127,0.819 -0.491,1.021 l -6.843,3.8 c -0.151,0.082 -0.315,0.121 -0.476,0.121 z m -1.35,-5.208 1.709,2.906 3.58,-1.988 z"
             id="path38"
             style="fill:#cbff00" />
        </g>
        <g
           id="g44"
           style="fill:#cbff00">
          <path
             d="m 436.865,266.844 c -0.16,0 -0.322,-0.039 -0.473,-0.123 l -6.846,-3.8 c -0.361,-0.202 -0.559,-0.611 -0.49,-1.021 0.069,-0.41 0.391,-0.731 0.801,-0.803 l 10.111,-1.757 c 0.375,-0.063 0.758,0.094 0.973,0.408 0.219,0.314 0.234,0.727 0.041,1.055 l -3.27,5.557 c -0.183,0.311 -0.509,0.484 -0.847,0.484 z m -3.937,-4.29 3.578,1.988 1.711,-2.906 z"
             id="path42"
             style="fill:#cbff00" />
        </g>
      </g>
    </g>
  </g>
</svg>
