<svg width="150" height="150" viewBox="0 0 11.906 18.521" xmlns="http://www.w3.org/2000/svg"><g fill="#cbff00"><path d="M6.905 17.535H5.002a.259.259 0 01-.138-.04l-2.723-1.694a.26.26 0 01-.123-.22v-7a.26.26 0 01.123-.22l2.723-1.696a.262.262 0 01.138-.039h1.903c.048 0 .096.014.137.039L9.766 8.36c.076.048.123.13.123.22v7c0 .09-.047.173-.123.22l-2.724 1.695a.255.255 0 01-.137.04zm-1.83-.519H6.83l2.539-1.58V8.726L6.83 7.145H5.076l-2.539 1.58v6.712z"/><path d="M9.63 15.84a.259.259 0 01-.23-.137L5.954 9.32l-3.448 6.383a.26.26 0 01-.456-.246L5.725 8.65a.26.26 0 01.456 0l3.676 6.807a.26.26 0 01-.228.382z"/><path d="M5.954 9.033a.26.26 0 01-.233-.143l-.95-1.888A.258.258 0 015 6.626h1.904a.259.259 0 01.231.376l-.95 1.888a.26.26 0 01-.232.143zm-.531-1.888l.53 1.052.53-1.052z"/><path d="M5.954 15.765a.26.26 0 01-.23-.138L2.05 8.702a.259.259 0 11.458-.243l3.447 6.493 3.445-6.493a.26.26 0 01.459.243l-3.675 6.925a.26.26 0 01-.23.138z"/><path d="M6.908 17.535H5.002a.26.26 0 01-.229-.383l.951-1.77a.26.26 0 01.458 0l.933 1.737a.26.26 0 01-.206.416zm-1.472-.519H6.47l-.518-.963zM2.163 7.445a.26.26 0 01-.135-.481l2.306-1.398a.257.257 0 01.134-.038h1.485a.26.26 0 010 .518H4.541L2.297 7.407a.256.256 0 01-.134.038z"/><path d="M9.743 7.445a.26.26 0 01-.134-.038l-2.244-1.36H5.954a.259.259 0 110-.519h1.484a.26.26 0 01.135.038l2.306 1.398a.26.26 0 01-.136.481zM5.954 4.845H4.483a.26.26 0 01-.237-.364l1.47-3.34a.26.26 0 01.475.21L4.88 4.325h1.073a.26.26 0 010 .519z"/><path d="M7.424 4.845h-1.47a.259.259 0 110-.519h1.072L5.716 1.35a.26.26 0 01.475-.21l1.47 3.341a.261.261 0 01-.02.246.261.261 0 01-.217.118zM1.74 6.221a.26.26 0 01-.224-.127l-.864-1.47a.26.26 0 01.268-.388l2.675.465a.26.26 0 01.082.483l-1.81 1.005a.264.264 0 01-.127.032zm-.357-1.378l.452.769.948-.526zM10.165 6.221a.256.256 0 01-.125-.032L8.23 5.183a.26.26 0 01.082-.482l2.675-.465a.26.26 0 01.269.387l-.865 1.47a.26.26 0 01-.225.128zM9.124 5.086l.946.526.453-.769z"/></g></svg>