<?xml version="1.0" encoding="utf-8"?><svg width="320" height="320" viewBox="0 0 320 320" xmlns="http://www.w3.org/2000/svg" xmlns:xlink="http://www.w3.org/1999/xlink"><view id="accessible" viewBox="150 0 85 85"/><svg width="85" height="85" viewBox="0 0 85 85" x="150" xmlns="http://www.w3.org/2000/svg"><path fill="none" d="M-1-1h582v402H-1z"/><g stroke-width="2.5" stroke-miterlimit="10" stroke-linejoin="round" stroke="#000" fill="none"><path d="M51.9 57.102v13.606c0 1.55-1.269 2.906-2.816 2.906H20.308c-1.549 0-2.815-1.356-2.815-2.906V14.201a2.822 2.822 0 012.815-2.815h28.776a2.823 2.823 0 012.816 2.815v2.448M21.675 61.333h26.034"/><path stroke-linecap="round" d="M32.357 67.298h4.679M48.9 25.323a11.77 11.77 0 00-3.096 1.279l-3.48-2.47-3.165 3.161 2.47 3.481a11.734 11.734 0 00-1.272 3.072l-4.207.716v4.473l4.207.717a11.705 11.705 0 001.285 3.091l-2.482 3.462 3.165 3.162 3.458-2.482a11.85 11.85 0 003.092 1.285l.717 4.209h4.473l.718-4.207a11.92 11.92 0 003.096-1.287l3.459 2.482 3.162-3.162-2.481-3.458a11.869 11.869 0 001.291-3.121l4.2-.689v-4.473l-4.2-.691a11.795 11.795 0 00-1.277-3.097l2.469-3.48-3.162-3.162-3.482 2.47a11.85 11.85 0 00-3.098-1.281l-.691-4.199h-4.473"/><path stroke-linecap="round" d="M50.994 32.294a4.581 4.581 0 11.836 9.085 4.582 4.582 0 01-4.516-5.378"/></g></svg><view id="adresse" viewBox="0 150 85 85"/><svg width="85" height="85" viewBox="0 0 85 85" y="150" xmlns="http://www.w3.org/2000/svg"><path fill="none" d="M-1-1h582v402H-1z"/><g stroke-width="2.5" stroke-miterlimit="10" stroke-linecap="round" stroke="#000" fill="none"><path d="M42.453 25.66L21.405 44.488v24.158h15.674V54.902h10.764v13.744h15.674V44.488z"/><path d="M72.879 42.868L42.5 16.353 27.34 29.57v-6.858h-6.045V34.86l-9.174 8.008"/></g></svg><view id="durable" viewBox="85 150 85 85"/><svg width="85" height="85" viewBox="0 0 85 85" x="85" y="150" xmlns="http://www.w3.org/2000/svg"><path fill="none" d="M-1-1h582v402H-1z"/><g stroke-width="2.5" stroke-miterlimit="10" stroke="#000" fill="none"><path stroke-linejoin="round" d="M40.833 47.799c-.934-10.959-3.42-17.473-5.377-21.109 2.492-1.551 2.121-7.726-1.275-11.231-3.998-4.129-8.795-5.372-8.795-5.372s-1.367 4.339.602 10.325c1.021 3.102 3.633 5.66 6.09 6.489"/><path d="M45.928 29.745c-1.104-5.038.705-10.871 7.689-13.753 6.717-2.772 23.486-.569 23.486-.569S71.88 30.824 66.062 35.968c-7.902 6.986-15.176 3.264-18.476-2.107"/><path stroke-linejoin="round" stroke-linecap="round" d="M53.572 30.243l6.344 3.201m-1.082-7.129l.182-4.816m8.339-.108L46.645 34.27s-4.936 3.036-6.413 6.821"/><path stroke-linejoin="round" d="M57.562 54.299l12.078-6.174c2.334-1.254 5.071-.75 6.2 1.352 1.127 2.103.14 4.849-2.196 6.103l-25.06 13.43-1.326.332-23.373.633s-3.01.844-6.625 4.939"/><path d="M7.897 63.576l11.658-10.709c5.183-3.494 11.325-1.564 11.325-1.564 2.975.781 8.502.959 8.502.959h9.173c2.731 0 4.969 1.951 4.969 4.336s-2.236 4.338-4.969 4.338H35.864"/></g></svg><view id="email" viewBox="235 0 85 85"/><svg width="85" height="85" viewBox="0 0 85 85" x="235" xmlns="http://www.w3.org/2000/svg"><path fill="none" d="M-1-1h582v402H-1z"/><g stroke-width="2.5" stroke-miterlimit="10" stroke-linejoin="round" stroke="#000" fill="none"><path d="M69.931 59.422c0 1.649-1.35 3-3 3H18.068a3.01 3.01 0 01-3-3V25.578c0-1.65 1.351-3 3-3H66.93c1.65 0 3 1.35 3 3v33.844h.001z"/><path stroke-linecap="round" d="M29.196 46.102L16.804 60.934m39-14.832l12.392 14.832m-52.058-37.28l26.443 20.413 26.224-20.58"/></g></svg><view id="fiable" viewBox="235 85 85 85"/><svg width="85" height="85" viewBox="0 0 85 85" x="235" y="85" xmlns="http://www.w3.org/2000/svg"><path fill="none" d="M-1-1h582v402H-1z"/><g stroke-width="2.5" stroke-miterlimit="10" stroke-linejoin="round" stroke="#000" fill="none"><path stroke-linecap="round" d="M38.672 14.609c-3.572 3.013-10.151 6.359-21.777 6.359v27.877s-1.714 13.396 25.604 26.263C69.818 62.24 68.104 48.845 68.104 48.845V20.968C46.956 20.968 42.5 9.894 42.5 9.894"/><path stroke-linecap="round" d="M34.713 37.689l8.054 11.152 14.846-17.745"/><path d="M57.414 39.061a15.31 15.31 0 01.389 3.436c0 8.451-6.852 15.303-15.303 15.303s-15.302-6.852-15.302-15.303 6.85-15.304 15.302-15.304c3.48 0 6.688 1.161 9.258 3.117"/></g></svg><view id="logo" viewBox="0 0 150 150"/><svg width="150" height="150" viewBox="0 0 11.906 18.521" xmlns="http://www.w3.org/2000/svg"><g fill="#cbff00"><path d="M6.905 17.535H5.002a.259.259 0 01-.138-.04l-2.723-1.694a.26.26 0 01-.123-.22v-7a.26.26 0 01.123-.22l2.723-1.696a.262.262 0 01.138-.039h1.903c.048 0 .096.014.137.039L9.766 8.36a.26.26 0 01.123.22v7c0 .09-.047.173-.123.22l-2.724 1.695a.255.255 0 01-.137.04zm-1.83-.519H6.83l2.539-1.58v-6.71L6.83 7.145H5.076l-2.539 1.58v6.712z"/><path d="M9.63 15.84a.259.259 0 01-.23-.137L5.954 9.32l-3.448 6.383a.26.26 0 01-.456-.246L5.725 8.65a.26.26 0 01.456 0l3.676 6.807a.26.26 0 01-.228.382z"/><path d="M5.954 9.033a.26.26 0 01-.233-.143l-.95-1.888A.258.258 0 015 6.626h1.904a.259.259 0 01.231.376l-.95 1.888a.26.26 0 01-.232.143zm-.531-1.888l.53 1.052.53-1.052z"/><path d="M5.954 15.765a.26.26 0 01-.23-.138L2.05 8.702a.259.259 0 11.458-.243l3.447 6.493L9.4 8.459a.26.26 0 01.459.243l-3.675 6.925a.26.26 0 01-.23.138z"/><path d="M6.908 17.535H5.002a.26.26 0 01-.229-.383l.951-1.77a.26.26 0 01.458 0l.933 1.737a.26.26 0 01-.206.416zm-1.472-.519H6.47l-.518-.963zM2.163 7.445a.26.26 0 01-.135-.481l2.306-1.398a.257.257 0 01.134-.038h1.485a.26.26 0 010 .518H4.541L2.297 7.407a.256.256 0 01-.134.038z"/><path d="M9.743 7.445a.26.26 0 01-.134-.038l-2.244-1.36H5.954a.259.259 0 110-.519h1.484a.26.26 0 01.135.038l2.306 1.398a.26.26 0 01-.136.481zm-3.789-2.6H4.483a.26.26 0 01-.237-.364l1.47-3.34a.26.26 0 01.475.21L4.88 4.325h1.073a.26.26 0 010 .519z"/><path d="M7.424 4.845h-1.47a.259.259 0 110-.519h1.072L5.716 1.35a.26.26 0 01.475-.21l1.47 3.341a.261.261 0 01-.02.246.261.261 0 01-.217.118zM1.74 6.221a.26.26 0 01-.224-.127l-.864-1.47a.26.26 0 01.268-.388l2.675.465a.26.26 0 01.082.483l-1.81 1.005a.264.264 0 01-.127.032zm-.357-1.378l.452.769.948-.526zm8.782 1.378a.256.256 0 01-.125-.032L8.23 5.183a.26.26 0 01.082-.482l2.675-.465a.26.26 0 01.269.387l-.865 1.47a.26.26 0 01-.225.128zM9.124 5.086l.946.526.453-.769z"/></g></svg><view id="rentable" viewBox="0 235 85 85"/><svg width="85" height="85" viewBox="0 0 85 85" y="235" xmlns="http://www.w3.org/2000/svg"><path fill="none" d="M-1-1h582v402H-1z"/><g stroke-width="2.5" stroke-linecap="round" stroke="#000" fill="none"><path stroke-miterlimit="10" stroke-linejoin="round" d="M25.607 34.12v3.843"/><path d="M37.146 27.898v-8l5.374.002c.66-.002.973-.518 1.1-.822.268-.652.176-1.475-.217-1.867L32.541 6.357a1.943 1.943 0 00-2.744 0L18.986 17.21c-.42.42-.549 1.229-.291 1.85.227.541.697.84 1.324.84l5.588-.002v9.198"/><path stroke-miterlimit="10" stroke-linejoin="round" d="M57.535 58.688v2.861m-15.502 2.957v2.613m0-12.267v4.685"/><path d="M57.535 53.898V42.547l7.219.002c.887 0 1.309-.695 1.479-1.104.359-.877.236-1.981-.291-2.51L51.348 24.353a2.61 2.61 0 00-3.686 0L33.134 38.935c-.562.566-.736 1.653-.391 2.487.305.727.938 1.127 1.779 1.129l7.51-.002v7.703"/><path stroke-miterlimit="10" stroke-linejoin="round" d="M49.502 47.896v12.903m0 4.969v6.429m0 4.969v2.045"/><path stroke-miterlimit="10" d="M19.422 66.871c0 3.203 2.792 5.799 6.234 5.799 3.447 0 6.239-2.596 6.239-5.799 0-3.205-3.33-4.605-6.251-6.09-2.922-1.48-6.25-2.883-6.25-6.086 0-3.207 2.789-5.801 6.236-5.801 3.448 0 6.237 2.594 6.237 5.801m-6.236-5.83v-4.113m0 32.062v-4.115"/></g></svg><view id="telephone" viewBox="85 235 85 85"/><svg width="85" height="85" viewBox="0 0 85 85" x="85" y="235" xmlns="http://www.w3.org/2000/svg"><path fill="none" d="M-1-1h582v402H-1z"/><g stroke-width="2.5" stroke-miterlimit="10" stroke="#000" fill="none"><path stroke-linejoin="round" stroke-linecap="square" d="M67.559 57.275L57.995 50.9s-1.671-1.519-4.022-.228l-5.769 3.188s-5.785-4.596-8.99-8.076c-3.479-3.205-8.075-8.989-8.075-8.989l3.188-5.768c1.289-2.352-.228-4.023-.228-4.023l-6.376-9.562c-1.138-1.595-2.504-1.291-2.504-1.291-1.746.077-6.906 4.934-6.906 4.934-2.732 2.429-2.125 4.555-2.125 4.555 1.836 12.996 15.508 25.525 16.553 26.617 1.41 1.311 13.622 14.719 26.618 16.555 0 0 2.127.607 4.556-2.125 0 0 4.856-5.162 4.935-6.908 0 0 .304-1.364-1.291-2.504z"/><path d="M45.35 26.069c3.2.076 6.383 1.326 8.844 3.752a13.016 13.016 0 013.881 8.874m-12.479-19.87a20.23 20.23 0 0113.688 5.835 20.223 20.223 0 016.027 13.591"/></g></svg><view id="visible" viewBox="170 235 85 85"/><svg width="85" height="85" viewBox="0 0 85 85" x="170" y="235" xmlns="http://www.w3.org/2000/svg"><path fill="none" d="M-1-1h582v402H-1z"/><g stroke-width="2.5" stroke-miterlimit="10" stroke-linejoin="round" stroke="#000" fill="none"><path stroke-linecap="round" d="M29.743 64.264l4.55-32.883m-18.43 42.117s5.612 5.65 13.309 0c0 0 5.654 5.65 13.35 0 0 0 5.613 5.65 13.306 0 0 0 5.613 5.65 13.309 0"/><path d="M50.689 30.881V17.104c0-4.463-3.728-8.113-8.189-8.113-4.463 0-8.189 3.65-8.189 8.113v4.138m.15-5.583h16.078"/><path stroke-linecap="round" d="M26.051 19.234h-8.919m8.708-5.331l-8.496-3.472m0 17.606l8.496-3.473m33.107-5.33h8.92m-8.709 5.33l8.496 3.474m0-17.606l-8.496 3.473m-27.47 17.173h21.624M31.688 25.5h21.624"/><path d="M34.311 31.036v-5.5m-9.914 45.54l1.377-6.687h33.453l1.377 6.687m-8.889-31.431H37.452m15.097 8.632h-16.24m17.324 8.633H35.167"/><path stroke-linecap="round" d="M50.703 31.383l4.555 32.881"/><path d="M42.5 25.146v-5.375"/></g></svg></svg>