<svg xmlns="http://www.w3.org/2000/svg" width="476" height="65pt" viewBox="0 0 357 65"><path d="M62.773 3.148L55.2 41.023c-1.453 7.403-4.328 12.989-8.625 16.762-4.304 3.774-9.777 5.66-16.426 5.664-4.3-.004-8.027-.715-11.175-2.14-3.153-1.426-5.63-3.485-7.426-6.184l2.328-2.926c1.746 2.598 3.969 4.531 6.672 5.809 2.695 1.273 5.973 1.91 9.828 1.914 5.547-.004 10.121-1.586 13.723-4.762 3.597-3.172 6.023-7.96 7.277-14.363l1.648-8.25c-2.152 3.254-4.855 5.691-8.101 7.312-3.254 1.63-6.953 2.442-11.098 2.438-5.406.004-9.617-1.395-12.64-4.2-3.024-2.796-4.536-6.796-4.536-12 0-1.894.223-3.968.676-6.222L20.7 3.148h3.824L21.148 19.95c-.402 2.254-.605 4.18-.601 5.774-.004 4.304 1.21 7.566 3.637 9.789 2.425 2.226 5.937 3.34 10.539 3.336 5.297.004 9.757-1.508 13.386-4.535 3.621-3.024 6.059-7.563 7.313-13.614l3.527-17.55zm22.7 52.801c-5.301-.004-9.512-1.476-12.637-4.426-3.125-2.949-4.688-6.898-4.688-11.851 0-4.445.961-8.445 2.887-11.996 1.922-3.551 4.586-6.352 7.988-8.403 3.399-2.046 7.247-3.07 11.551-3.074 5.297.004 9.512 1.465 12.637 4.387 3.125 2.926 4.687 6.89 4.687 11.887 0 4.453-.964 8.465-2.886 12.039-1.93 3.578-4.59 6.379-7.989 8.402-3.402 2.023-7.253 3.031-11.55 3.035zm.3-3.375c3.5.004 6.637-.847 9.41-2.55 2.774-1.7 4.962-4.06 6.563-7.087 1.602-3.023 2.402-6.437 2.402-10.238 0-4.148-1.214-7.375-3.636-9.676-2.43-2.296-5.84-3.445-10.239-3.449-3.5.004-6.64.867-9.414 2.59-2.777 1.727-4.964 4.102-6.562 7.125-1.602 3.027-2.399 6.414-2.399 10.16 0 4.153 1.211 7.38 3.637 9.676 2.422 2.305 5.836 3.453 10.238 3.45zm70.75.149c1.5.004 2.797-.246 3.899-.75l-.375 3.152c-1.254.55-2.754.82-4.5.824-2.652-.004-4.7-.738-6.149-2.21-1.453-1.477-2.128-3.438-2.023-5.891-3.754 5.402-9.23 8.097-16.426 8.101-4.406-.004-7.793-1.113-10.164-3.336-2.379-2.226-3.566-5.289-3.562-9.191a21.185 21.185 0 01.449-4.274l4.5-22.648h3.75l-4.5 22.648c-.254 1.102-.379 2.352-.375 3.75-.004 3.102.91 5.493 2.738 7.164 1.824 1.68 4.535 2.516 8.137 2.512 4.496.004 8.223-1.258 11.176-3.785 2.949-2.523 4.898-6.187 5.851-10.992l4.274-21.297h3.75l-5.7 28.348a10.19 10.19 0 00-.3 2.55c-.004 1.75.457 3.079 1.386 3.977.922.902 2.313 1.352 4.164 1.348zm35.426 3.3c-5.105 0-9.469-.898-13.09-2.699-3.629-1.797-6.379-4.32-8.25-7.574-1.879-3.246-2.816-7.023-2.812-11.328-.004-5.695 1.297-10.969 3.898-15.82 2.598-4.848 6.297-8.7 11.102-11.551 4.797-2.852 10.398-4.278 16.8-4.278 4.048 0 7.66.625 10.837 1.875 3.175 1.25 5.636 3.028 7.39 5.325l-2.699 2.476c-3.504-4.097-8.781-6.148-15.828-6.152-5.504.004-10.352 1.266-14.55 3.789-4.2 2.527-7.438 5.918-9.712 10.164-2.277 4.254-3.414 8.926-3.41 14.023-.004 5.602 1.77 10.04 5.324 13.313 3.547 3.277 8.649 4.918 15.301 4.914 7.195.004 12.969-2.098 17.324-6.3l2.324 2.624c-2.3 2.301-5.191 4.074-8.664 5.324-3.476 1.25-7.238 1.875-11.285 1.875zm43.524-.074c-5.301-.004-9.512-1.476-12.637-4.426-3.125-2.949-4.688-6.898-4.688-11.851 0-4.445.961-8.445 2.887-11.996 1.922-3.551 4.586-6.352 7.988-8.403 3.399-2.046 7.247-3.07 11.551-3.074 5.297.004 9.512 1.465 12.637 4.387 3.125 2.926 4.687 6.89 4.687 11.887 0 4.453-.964 8.465-2.886 12.039-1.93 3.578-4.59 6.379-7.989 8.402-3.402 2.023-7.253 3.031-11.55 3.035zm.3-3.375c3.5.004 6.637-.847 9.41-2.55 2.774-1.7 4.962-4.06 6.563-7.087 1.602-3.023 2.402-6.437 2.402-10.238 0-4.148-1.214-7.375-3.636-9.676-2.43-2.296-5.84-3.445-10.239-3.449-3.5.004-6.64.867-9.414 2.59-2.777 1.727-4.964 4.102-6.562 7.125-1.602 3.027-2.399 6.414-2.399 10.16 0 4.153 1.211 7.38 3.637 9.676 2.422 2.305 5.836 3.453 10.238 3.45zm71.125.149c1.5.004 2.797-.246 3.899-.75l-.297 3.152c-1.355.55-2.883.82-4.578.824-2.652-.004-4.715-.71-6.188-2.136-1.476-1.422-2.187-3.387-2.136-5.891a19.459 19.459 0 01-7.125 5.93c-2.852 1.398-6 2.093-9.45 2.097-5.101-.004-9.191-1.46-12.261-4.386-3.078-2.922-4.614-6.887-4.614-11.891 0-4.445.95-8.457 2.848-12.035 1.899-3.575 4.535-6.375 7.914-8.399 3.371-2.023 7.16-3.035 11.363-3.039 4.047.004 7.383.867 10.012 2.59 2.621 1.727 4.41 4.164 5.363 7.309L306.898 0h3.75l-8.925 44.848a10.19 10.19 0 00-.301 2.55c-.004 1.75.46 3.079 1.387 3.977.925.902 2.289 1.352 4.09 1.348zm-25.125-.149c3.5.004 6.637-.847 9.41-2.55 2.774-1.7 4.962-4.06 6.563-7.087 1.602-3.023 2.402-6.437 2.402-10.238 0-4.148-1.214-7.375-3.636-9.676-2.43-2.296-5.84-3.445-10.239-3.449-3.5.004-6.64.867-9.414 2.59-2.777 1.727-4.964 4.102-6.562 7.125-1.602 3.027-2.399 6.414-2.399 10.16 0 4.153 1.211 7.38 3.637 9.676 2.422 2.305 5.836 3.453 10.238 3.45zm56.75-36.375c5.149.004 9.211 1.465 12.188 4.387 2.973 2.926 4.457 7.016 4.46 12.262l-.073 1.574-34.2 6.453c.25 3.754 1.598 6.64 4.051 8.664 2.446 2.027 5.895 3.04 10.348 3.035 2.746.004 5.285-.457 7.613-1.386 2.324-.922 4.262-2.211 5.813-3.864l1.726 2.625c-1.754 1.903-3.976 3.38-6.676 4.426-2.703 1.05-5.628 1.57-8.773 1.574-5.555-.004-9.918-1.449-13.09-4.347-3.176-2.899-4.762-6.926-4.762-12.079 0-4.398.922-8.37 2.774-11.925 1.848-3.547 4.398-6.336 7.652-8.36 3.246-2.023 6.899-3.035 10.95-3.039zm-.074 3.223c-3.254.004-6.18.793-8.777 2.363-2.602 1.578-4.676 3.766-6.223 6.563-1.554 2.804-2.43 6.004-2.625 9.601l30.824-5.851c.047-3.946-1.117-7.047-3.488-9.301-2.379-2.246-5.617-3.371-9.71-3.375zM5.773-27.352" fill="#cbff00" stroke-width=".75" stroke="#cbff00" stroke-miterlimit="10"/></svg>